<svg width="40" height="40" viewBox="0 0 40 40" fill="none" xmlns="http://www.w3.org/2000/svg">
  <!-- Pixel art medical cross -->
  
  <!-- Vertical bar -->
  <rect x="16" y="8" width="4" height="4" fill="#570df8"/>
  <rect x="16" y="12" width="4" height="4" fill="#570df8"/>
  <rect x="16" y="16" width="4" height="4" fill="#570df8"/>
  <rect x="16" y="20" width="4" height="4" fill="#570df8"/>
  <rect x="16" y="24" width="4" height="4" fill="#570df8"/>
  <rect x="16" y="28" width="4" height="4" fill="#570df8"/>
  
  <rect x="20" y="8" width="4" height="4" fill="#570df8"/>
  <rect x="20" y="12" width="4" height="4" fill="#570df8"/>
  <rect x="20" y="16" width="4" height="4" fill="#570df8"/>
  <rect x="20" y="20" width="4" height="4" fill="#570df8"/>
  <rect x="20" y="24" width="4" height="4" fill="#570df8"/>
  <rect x="20" y="28" width="4" height="4" fill="#570df8"/>
  
  <!-- Horizontal bar -->
  <rect x="8" y="16" width="4" height="4" fill="#570df8"/>
  <rect x="12" y="16" width="4" height="4" fill="#570df8"/>
  <rect x="24" y="16" width="4" height="4" fill="#570df8"/>
  <rect x="28" y="16" width="4" height="4" fill="#570df8"/>
  
  <rect x="8" y="20" width="4" height="4" fill="#570df8"/>
  <rect x="12" y="20" width="4" height="4" fill="#570df8"/>
  <rect x="24" y="20" width="4" height="4" fill="#570df8"/>
  <rect x="28" y="20" width="4" height="4" fill="#570df8"/>
  
  <!-- Pulse line pixels (white) -->
  <rect x="16" y="20" width="4" height="4" fill="white"/>
  <rect x="20" y="16" width="4" height="4" fill="white"/>
  <rect x="20" y="24" width="4" height="4" fill="white"/>
</svg>
